<svg width="1080" height="1080" viewBox="0 0 1080 1080" fill="none" xmlns="http://www.w3.org/2000/svg">
<rect width="1080" height="1080" fill="#C9CEDB"/>
<path d="M159.909 732.5C159.591 731.394 159.144 730.417 158.568 729.568C157.992 728.705 157.288 727.977 156.455 727.386C155.636 726.78 154.697 726.318 153.636 726C152.591 725.682 151.432 725.523 150.159 725.523C147.78 725.523 145.689 726.114 143.886 727.295C142.098 728.477 140.705 730.197 139.705 732.455C138.705 734.697 138.205 737.439 138.205 740.682C138.205 743.924 138.697 746.682 139.682 748.955C140.667 751.227 142.061 752.962 143.864 754.159C145.667 755.341 147.795 755.932 150.25 755.932C152.477 755.932 154.379 755.538 155.955 754.75C157.545 753.947 158.758 752.818 159.591 751.364C160.439 749.909 160.864 748.189 160.864 746.205L162.864 746.5H150.864V739.091H170.341V744.955C170.341 749.045 169.477 752.561 167.75 755.5C166.023 758.424 163.644 760.682 160.614 762.273C157.583 763.848 154.114 764.636 150.205 764.636C145.841 764.636 142.008 763.674 138.705 761.75C135.402 759.811 132.826 757.061 130.977 753.5C129.144 749.924 128.227 745.682 128.227 740.773C128.227 737 128.773 733.636 129.864 730.682C130.97 727.712 132.515 725.197 134.5 723.136C136.485 721.076 138.795 719.508 141.432 718.432C144.068 717.356 146.924 716.818 150 716.818C152.636 716.818 155.091 717.205 157.364 717.977C159.636 718.735 161.652 719.811 163.409 721.205C165.182 722.598 166.629 724.258 167.75 726.182C168.871 728.091 169.591 730.197 169.909 732.5H159.909ZM184.318 764H173.773L189.841 717.455H202.523L218.568 764H208.023L196.364 728.091H196L184.318 764ZM183.659 745.705H208.568V753.386H183.659V745.705ZM224.17 717.455H236.307L249.125 748.727H249.67L262.489 717.455H274.625V764H265.08V733.705H264.693L252.648 763.773H246.148L234.102 733.591H233.716V764H224.17V717.455ZM282.733 764V717.455H301.369C304.794 717.455 307.65 717.962 309.938 718.977C312.225 719.992 313.945 721.402 315.097 723.205C316.248 724.992 316.824 727.053 316.824 729.386C316.824 731.205 316.46 732.803 315.733 734.182C315.006 735.545 314.006 736.667 312.733 737.545C311.475 738.409 310.036 739.023 308.415 739.386V739.841C310.188 739.917 311.847 740.417 313.392 741.341C314.953 742.265 316.218 743.561 317.188 745.227C318.157 746.879 318.642 748.848 318.642 751.136C318.642 753.606 318.028 755.811 316.801 757.75C315.589 759.674 313.794 761.197 311.415 762.318C309.036 763.439 306.104 764 302.619 764H282.733ZM292.574 755.955H300.597C303.339 755.955 305.339 755.432 306.597 754.386C307.854 753.326 308.483 751.917 308.483 750.159C308.483 748.871 308.172 747.735 307.551 746.75C306.93 745.765 306.044 744.992 304.892 744.432C303.756 743.871 302.4 743.591 300.824 743.591H292.574V755.955ZM292.574 736.932H299.869C301.218 736.932 302.415 736.697 303.46 736.227C304.521 735.742 305.354 735.061 305.96 734.182C306.581 733.303 306.892 732.25 306.892 731.023C306.892 729.341 306.294 727.985 305.097 726.955C303.915 725.924 302.233 725.409 300.051 725.409H292.574V736.932ZM333.068 764H322.523L338.591 717.455H351.273L367.318 764H356.773L345.114 728.091H344.75L333.068 764ZM332.409 745.705H357.318V753.386H332.409V745.705ZM372.92 764V717.455H391.284C394.799 717.455 397.799 718.083 400.284 719.341C402.784 720.583 404.686 722.348 405.989 724.636C407.307 726.909 407.966 729.583 407.966 732.659C407.966 735.75 407.299 738.409 405.966 740.636C404.633 742.848 402.701 744.545 400.17 745.727C397.655 746.909 394.61 747.5 391.034 747.5H378.739V739.591H389.443C391.322 739.591 392.883 739.333 394.125 738.818C395.367 738.303 396.292 737.53 396.898 736.5C397.519 735.47 397.83 734.189 397.83 732.659C397.83 731.114 397.519 729.811 396.898 728.75C396.292 727.689 395.36 726.886 394.102 726.341C392.86 725.78 391.292 725.5 389.398 725.5H382.761V764H372.92ZM398.057 742.818L409.625 764H398.761L387.443 742.818H398.057ZM427.96 725.568V717.455H466.188V725.568H451.938V764H442.21V725.568H427.96ZM482.324 717.455V764H472.483V717.455H482.324ZM506.92 764H490.42V717.455H507.057C511.739 717.455 515.769 718.386 519.148 720.25C522.527 722.098 525.125 724.758 526.943 728.227C528.777 731.697 529.693 735.848 529.693 740.682C529.693 745.53 528.777 749.697 526.943 753.182C525.125 756.667 522.511 759.341 519.102 761.205C515.708 763.068 511.648 764 506.92 764ZM500.261 755.568H506.511C509.42 755.568 511.867 755.053 513.852 754.023C515.852 752.977 517.352 751.364 518.352 749.182C519.367 746.985 519.875 744.152 519.875 740.682C519.875 737.242 519.367 734.432 518.352 732.25C517.352 730.068 515.86 728.462 513.875 727.432C511.89 726.402 509.443 725.886 506.534 725.886H500.261V755.568ZM542.381 764H531.835L547.903 717.455H560.585L576.631 764H566.085L554.426 728.091H554.062L542.381 764ZM541.722 745.705H566.631V753.386H541.722V745.705ZM582.233 764V717.455H592.074V737.977H592.688L609.438 717.455H621.233L603.96 738.295L621.438 764H609.665L596.915 744.864L592.074 750.773V764H582.233ZM639.398 725.568V717.455H677.625V725.568H663.375V764H653.648V725.568H639.398ZM683.92 764V717.455H715.284V725.568H693.761V736.659H713.67V744.773H693.761V755.886H715.375V764H683.92ZM723.108 764V717.455H741.472C744.987 717.455 747.987 718.083 750.472 719.341C752.972 720.583 754.873 722.348 756.176 724.636C757.494 726.909 758.153 729.583 758.153 732.659C758.153 735.75 757.487 738.409 756.153 740.636C754.82 742.848 752.888 744.545 750.358 745.727C747.843 746.909 744.797 747.5 741.222 747.5H728.926V739.591H739.631C741.509 739.591 743.07 739.333 744.312 738.818C745.555 738.303 746.479 737.53 747.085 736.5C747.706 735.47 748.017 734.189 748.017 732.659C748.017 731.114 747.706 729.811 747.085 728.75C746.479 727.689 745.547 726.886 744.29 726.341C743.047 725.78 741.479 725.5 739.585 725.5H732.949V764H723.108ZM748.244 742.818L759.812 764H748.949L737.631 742.818H748.244ZM790.358 730.841C790.176 729.008 789.396 727.583 788.017 726.568C786.638 725.553 784.767 725.045 782.403 725.045C780.797 725.045 779.441 725.273 778.335 725.727C777.229 726.167 776.381 726.78 775.79 727.568C775.214 728.356 774.926 729.25 774.926 730.25C774.896 731.083 775.07 731.811 775.449 732.432C775.843 733.053 776.381 733.591 777.062 734.045C777.744 734.485 778.532 734.871 779.426 735.205C780.32 735.523 781.275 735.795 782.29 736.023L786.472 737.023C788.502 737.477 790.366 738.083 792.062 738.841C793.759 739.598 795.229 740.53 796.472 741.636C797.714 742.742 798.676 744.045 799.358 745.545C800.055 747.045 800.411 748.765 800.426 750.705C800.411 753.553 799.684 756.023 798.244 758.114C796.82 760.189 794.759 761.803 792.062 762.955C789.381 764.091 786.146 764.659 782.358 764.659C778.6 764.659 775.328 764.083 772.54 762.932C769.767 761.78 767.6 760.076 766.04 757.818C764.494 755.545 763.684 752.735 763.608 749.386H773.131C773.237 750.947 773.684 752.25 774.472 753.295C775.275 754.326 776.343 755.106 777.676 755.636C779.025 756.152 780.547 756.409 782.244 756.409C783.911 756.409 785.358 756.167 786.585 755.682C787.828 755.197 788.79 754.523 789.472 753.659C790.153 752.795 790.494 751.803 790.494 750.682C790.494 749.636 790.184 748.758 789.562 748.045C788.956 747.333 788.063 746.727 786.881 746.227C785.714 745.727 784.282 745.273 782.585 744.864L777.517 743.591C773.593 742.636 770.494 741.144 768.222 739.114C765.949 737.083 764.82 734.348 764.835 730.909C764.82 728.091 765.57 725.629 767.085 723.523C768.616 721.417 770.714 719.773 773.381 718.591C776.047 717.409 779.078 716.818 782.472 716.818C785.926 716.818 788.941 717.409 791.517 718.591C794.108 719.773 796.123 721.417 797.562 723.523C799.002 725.629 799.744 728.068 799.79 730.841H790.358ZM807.045 764V717.455H838.409V725.568H816.886V736.659H836.795V744.773H816.886V755.886H838.5V764H807.045ZM862.733 764H846.233V717.455H862.869C867.551 717.455 871.581 718.386 874.96 720.25C878.339 722.098 880.938 724.758 882.756 728.227C884.589 731.697 885.506 735.848 885.506 740.682C885.506 745.53 884.589 749.697 882.756 753.182C880.938 756.667 878.324 759.341 874.915 761.205C871.521 763.068 867.46 764 862.733 764ZM856.074 755.568H862.324C865.233 755.568 867.68 755.053 869.665 754.023C871.665 752.977 873.165 751.364 874.165 749.182C875.18 746.985 875.688 744.152 875.688 740.682C875.688 737.242 875.18 734.432 874.165 732.25C873.165 730.068 871.672 728.462 869.688 727.432C867.703 726.402 865.256 725.886 862.347 725.886H856.074V755.568ZM902.636 717.455V764H892.795V717.455H902.636ZM918.756 764H908.21L924.278 717.455H936.96L953.006 764H942.46L930.801 728.091H930.438L918.756 764ZM918.097 745.705H943.006V753.386H918.097V745.705Z" fill="black"/>
<g clip-path="url(#clip0_12_2)">
<path d="M356.708 651.875H724.292L540.5 334.417L356.708 651.875ZM557.208 601.75H523.792V568.333H557.208V601.75ZM557.208 534.917H523.792V468.083H557.208V534.917Z" fill="black"/>
</g>
<defs>
<clipPath id="clip0_12_2">
<rect width="401" height="401" fill="white" transform="translate(340 301)"/>
</clipPath>
</defs>
</svg>
